<svg fill="#000000" xmlns:dc="http://purl.org/dc/elements/1.1/" xmlns:cc="http://creativecommons.org/ns#" xmlns:rdf="http://www.w3.org/1999/02/22-rdf-syntax-ns#" xmlns:svg="http://www.w3.org/2000/svg" xmlns="http://www.w3.org/2000/svg" xmlns:sodipodi="http://sodipodi.sourceforge.net/DTD/sodipodi-0.dtd" xmlns:inkscape="http://www.inkscape.org/namespaces/inkscape" viewBox="0 0 8.4666665 8.4666669" version="1.1" x="0px" y="0px"><g transform="translate(0,-288.53332)"><path style="color:#000000;font-style:normal;font-variant:normal;font-weight:normal;font-stretch:normal;font-size:medium;line-height:normal;font-family:sans-serif;text-indent:0;text-align:start;text-decoration:none;text-decoration-line:none;text-decoration-style:solid;text-decoration-color:#000000;letter-spacing:normal;word-spacing:normal;text-transform:none;direction:ltr;block-progression:tb;writing-mode:lr-tb;baseline-shift:baseline;text-anchor:start;white-space:normal;clip-rule:nonzero;display:inline;overflow:visible;visibility:visible;opacity:1;isolation:auto;mix-blend-mode:normal;color-interpolation:sRGB;color-interpolation-filters:linearRGB;solid-color:#000000;solid-opacity:1;fill:#000000;fill-opacity:1;fill-rule:nonzero;stroke:none;stroke-width:0.26458338;stroke-linecap:butt;stroke-linejoin:round;stroke-miterlimit:4;stroke-dasharray:none;stroke-dashoffset:0;stroke-opacity:1;color-rendering:auto;image-rendering:auto;shape-rendering:auto;text-rendering:auto;enable-background:accumulate" d="M 0.39648438,289.85547 C 0.17870746,289.85547 0,290.03612 0,290.25391 l 0,4.22656 c 0,0.21779 0.17870746,0.39648 0.39648438,0.39648 l 3.30468752,0 0.8242187,0 0.3652344,0.006 0.00391,-0.26367 -0.3652343,-0.006 -0.00195,0 -0.8261719,0 -3.30468752,0 c -0.0747249,0 -0.1328125,-0.0579 -0.1328125,-0.13281 l 0,-4.22656 c 0,-0.0749 0.0580876,-0.13282 0.1328125,-0.13282 l 6.60937502,0 c 0.074725,0 0.1305669,0.0573 0.1308594,0.13282 l 0.00781,1.58398 0.2636719,-0.002 -0.00586,-1.58399 c -8.416e-4,-0.21716 -0.1787075,-0.39648 -0.3964844,-0.39648 -2.2031062,6e-5 -4.4063545,-1.1e-4 -6.60937882,5e-5 z"/><path style="color:#000000;font-style:normal;font-variant:normal;font-weight:normal;font-stretch:normal;font-size:medium;line-height:normal;font-family:sans-serif;text-indent:0;text-align:start;text-decoration:none;text-decoration-line:none;text-decoration-style:solid;text-decoration-color:#000000;letter-spacing:normal;word-spacing:normal;text-transform:none;direction:ltr;block-progression:tb;writing-mode:lr-tb;baseline-shift:baseline;text-anchor:start;white-space:normal;clip-rule:nonzero;display:inline;overflow:visible;visibility:visible;opacity:1;isolation:auto;mix-blend-mode:normal;color-interpolation:sRGB;color-interpolation-filters:linearRGB;solid-color:#000000;solid-opacity:1;fill:#000000;fill-opacity:1;fill-rule:evenodd;stroke:none;stroke-width:0.26458335;stroke-linecap:butt;stroke-linejoin:miter;stroke-miterlimit:4;stroke-dasharray:none;stroke-dashoffset:0;stroke-opacity:1;color-rendering:auto;image-rendering:auto;shape-rendering:auto;text-rendering:auto;enable-background:accumulate" d="m 0.1328125,293.69336 0,0.26367 4.7617187,0 0,-0.26367 -4.7617187,0 z"/><path style="color:#000000;font-style:normal;font-variant:normal;font-weight:normal;font-stretch:normal;font-size:medium;line-height:normal;font-family:sans-serif;text-indent:0;text-align:start;text-decoration:none;text-decoration-line:none;text-decoration-style:solid;text-decoration-color:#000000;letter-spacing:normal;word-spacing:normal;text-transform:none;direction:ltr;block-progression:tb;writing-mode:lr-tb;baseline-shift:baseline;text-anchor:start;white-space:normal;clip-rule:nonzero;display:inline;overflow:visible;visibility:visible;opacity:1;isolation:auto;mix-blend-mode:normal;color-interpolation:sRGB;color-interpolation-filters:linearRGB;solid-color:#000000;solid-opacity:1;fill:#000000;fill-opacity:1;fill-rule:evenodd;stroke:none;stroke-width:0.26458335;stroke-linecap:butt;stroke-linejoin:round;stroke-miterlimit:4;stroke-dasharray:none;stroke-dashoffset:0;stroke-opacity:1;color-rendering:auto;image-rendering:auto;shape-rendering:auto;text-rendering:auto;enable-background:accumulate" d="m 2.9140625,294.79102 -0.1171875,0.52539 -0.265625,0.10547 a 0.1323049,0.1323049 0 0 0 0.048828,0.25585 l 2.2480469,0 a 0.1323049,0.1323049 0 0 0 0.048828,-0.25585 l -0.265625,-0.10547 -0.1171875,-0.52539 -0.2578125,0.0566 0.1269531,0.56445 -1.3183593,0 0.1269531,-0.56445 -0.2578125,-0.0566 z"/><path d="m 3.8364587,294.28799 a 0.13229167,0.13229168 0 0 1 -0.1322916,0.13229 0.13229167,0.13229168 0 0 1 -0.1322917,-0.13229 0.13229167,0.13229168 0 0 1 0.1322917,-0.13229 0.13229167,0.13229168 0 0 1 0.1322916,0.13229 z" style="opacity:1;fill:#000000;fill-opacity:1;stroke:none;stroke-width:0.26458335;stroke-linecap:butt;stroke-linejoin:round;stroke-miterlimit:4;stroke-dasharray:none;stroke-opacity:1"/><path style="color:#000000;font-style:normal;font-variant:normal;font-weight:normal;font-stretch:normal;font-size:medium;line-height:normal;font-family:sans-serif;text-indent:0;text-align:start;text-decoration:none;text-decoration-line:none;text-decoration-style:solid;text-decoration-color:#000000;letter-spacing:normal;word-spacing:normal;text-transform:none;direction:ltr;block-progression:tb;writing-mode:lr-tb;baseline-shift:baseline;text-anchor:start;white-space:normal;clip-rule:nonzero;display:inline;overflow:visible;visibility:visible;opacity:1;isolation:auto;mix-blend-mode:normal;color-interpolation:sRGB;color-interpolation-filters:linearRGB;solid-color:#000000;solid-opacity:1;fill:#000000;fill-opacity:1;fill-rule:evenodd;stroke:none;stroke-width:0.26458335;stroke-linecap:butt;stroke-linejoin:round;stroke-miterlimit:4;stroke-dasharray:none;stroke-dashoffset:0;stroke-opacity:1;color-rendering:auto;image-rendering:auto;shape-rendering:auto;text-rendering:auto;enable-background:accumulate" d="m 5.2792969,292.10547 c -0.06808,0.007 -0.1197412,0.0644 -0.1191407,0.13281 l 0,3.30664 c -2.819e-4,0.0727 0.058157,0.13202 0.1308594,0.13281 l 1.3242188,0 0,-0.26562 -1.1914063,0 0,-3.04297 2.1171875,0 0,0.39844 0.2636719,0 0,-0.5293 c 2.819e-4,-0.0727 -0.058157,-0.13202 -0.1308594,-0.13281 -0.7978959,0 -1.5974756,0 -2.3945312,0 z"/><path style="color:#000000;font-style:normal;font-variant:normal;font-weight:normal;font-stretch:normal;font-size:medium;line-height:normal;font-family:sans-serif;text-indent:0;text-align:start;text-decoration:none;text-decoration-line:none;text-decoration-style:solid;text-decoration-color:#000000;letter-spacing:normal;word-spacing:normal;text-transform:none;direction:ltr;block-progression:tb;writing-mode:lr-tb;baseline-shift:baseline;text-anchor:start;white-space:normal;clip-rule:nonzero;display:inline;overflow:visible;visibility:visible;opacity:1;isolation:auto;mix-blend-mode:normal;color-interpolation:sRGB;color-interpolation-filters:linearRGB;solid-color:#000000;solid-opacity:1;fill:#000000;fill-opacity:1;fill-rule:evenodd;stroke:none;stroke-width:0.26458335;stroke-linecap:round;stroke-linejoin:round;stroke-miterlimit:4;stroke-dasharray:none;stroke-dashoffset:0;stroke-opacity:1;color-rendering:auto;image-rendering:auto;shape-rendering:auto;text-rendering:auto;enable-background:accumulate" d="m 6.9980469,293.03125 a 0.1323049,0.1323049 0 0 0 -0.1191407,0.13281 l 0,2.38086 a 0.1323049,0.1323049 0 0 0 0.1328126,0.13281 l 1.3222656,0 a 0.1323049,0.1323049 0 0 0 0.1328125,-0.13281 l 0,-2.38086 a 0.1323049,0.1323049 0 0 0 -0.1328125,-0.13281 l -1.3222656,0 a 0.1323049,0.1323049 0 0 0 -0.013672,0 z m 0.1464843,0.26367 1.0566407,0 0,2.11719 -1.0566407,0 0,-2.11719 z"/><path style="" d="m 7.8052079,295.01558 a 0.13229167,0.13229168 0 0 1 -0.1322916,0.13229 0.13229167,0.13229168 0 0 1 -0.1322917,-0.13229 0.13229167,0.13229168 0 0 1 0.1322917,-0.13229 0.13229167,0.13229168 0 0 1 0.1322916,0.13229 z" fill="#000000" fill-opacity="1" stroke="none"/><path style="" d="m 6.614589,295.01558 a 0.13229167,0.13229168 0 0 1 -0.1322917,0.13229 0.13229167,0.13229168 0 0 1 -0.1322916,-0.13229 0.13229167,0.13229168 0 0 1 0.1322916,-0.13229 0.13229167,0.13229168 0 0 1 0.1322917,0.13229 z" fill="#000000" fill-opacity="1" stroke="none"/></g></svg>